<mxfile host="65bd71144e">
    <diagram id="bEwQ1z2mjma-EvsBMPAn" name="第 1 页">
        <mxGraphModel dx="649" dy="473" grid="1" gridSize="10" guides="1" tooltips="1" connect="1" arrows="1" fold="1" page="1" pageScale="1" pageWidth="827" pageHeight="1169" math="0" shadow="0">
            <root>
                <mxCell id="0"/>
                <mxCell id="1" parent="0"/>
                <mxCell id="11" style="edgeStyle=none;html=1;startArrow=classic;startFill=1;" parent="1" source="2" target="5" edge="1">
                    <mxGeometry relative="1" as="geometry"/>
                </mxCell>
                <mxCell id="2" value="&lt;font style=&quot;font-size: 24px&quot;&gt;client&lt;/font&gt;" style="sketch=0;outlineConnect=0;fontColor=#232F3E;gradientColor=none;fillColor=#232F3D;strokeColor=none;dashed=0;verticalLabelPosition=bottom;verticalAlign=top;align=center;html=1;fontSize=12;fontStyle=0;aspect=fixed;pointerEvents=1;shape=mxgraph.aws4.client;" parent="1" vertex="1">
                    <mxGeometry x="280" y="353" width="78" height="76" as="geometry"/>
                </mxCell>
                <mxCell id="6" value="Server contents" style="points=[[0,0],[0.25,0],[0.5,0],[0.75,0],[1,0],[1,0.25],[1,0.5],[1,0.75],[1,1],[0.75,1],[0.5,1],[0.25,1],[0,1],[0,0.75],[0,0.5],[0,0.25]];outlineConnect=0;gradientColor=none;html=1;whiteSpace=wrap;fontSize=12;fontStyle=0;container=1;pointerEvents=0;collapsible=0;recursiveResize=0;shape=mxgraph.aws4.group;grIcon=mxgraph.aws4.group_on_premise;strokeColor=#5A6C86;fillColor=none;verticalAlign=top;align=left;spacingLeft=30;fontColor=#5A6C86;dashed=0;" parent="1" vertex="1">
                    <mxGeometry x="470" y="250" width="340" height="282" as="geometry"/>
                </mxCell>
                <mxCell id="3" value="&lt;font style=&quot;font-size: 24px&quot;&gt;server&lt;/font&gt;" style="sketch=0;outlineConnect=0;fontColor=#232F3E;gradientColor=none;fillColor=#232F3D;strokeColor=none;dashed=0;verticalLabelPosition=bottom;verticalAlign=top;align=center;html=1;fontSize=12;fontStyle=0;aspect=fixed;pointerEvents=1;shape=mxgraph.aws4.traditional_server;" parent="6" vertex="1">
                    <mxGeometry x="237.5" y="102" width="45" height="78" as="geometry"/>
                </mxCell>
                <mxCell id="10" style="edgeStyle=none;html=1;startArrow=classic;startFill=1;" parent="6" source="5" target="3" edge="1">
                    <mxGeometry relative="1" as="geometry"/>
                </mxCell>
                <mxCell id="5" value="&lt;font style=&quot;font-size: 20px&quot;&gt;Agency &lt;br&gt;Server&lt;/font&gt;" style="sketch=0;outlineConnect=0;fontColor=#232F3E;gradientColor=none;fillColor=#232F3D;strokeColor=none;dashed=0;verticalLabelPosition=bottom;verticalAlign=top;align=center;html=1;fontSize=12;fontStyle=0;aspect=fixed;pointerEvents=1;shape=mxgraph.aws4.traditional_server;" parent="6" vertex="1">
                    <mxGeometry x="85" y="102" width="45" height="78" as="geometry"/>
                </mxCell>
                <mxCell id="7" value="同一网络下" style="text;html=1;align=center;verticalAlign=middle;resizable=0;points=[];autosize=1;strokeColor=none;fillColor=none;" parent="6" vertex="1">
                    <mxGeometry x="130" width="80" height="20" as="geometry"/>
                </mxCell>
                <mxCell id="8" value="80" style="text;html=1;align=center;verticalAlign=middle;resizable=0;points=[];autosize=1;strokeColor=none;fillColor=none;" parent="6" vertex="1">
                    <mxGeometry x="245" y="80" width="30" height="20" as="geometry"/>
                </mxCell>
                <mxCell id="12" value="80" style="text;html=1;align=center;verticalAlign=middle;resizable=0;points=[];autosize=1;strokeColor=none;fillColor=none;" vertex="1" parent="6">
                    <mxGeometry x="92.5" y="82" width="30" height="20" as="geometry"/>
                </mxCell>
                <mxCell id="9" value="docker对外暴露9010" style="text;html=1;align=center;verticalAlign=middle;resizable=0;points=[];autosize=1;strokeColor=none;fillColor=none;" parent="6" vertex="1">
                    <mxGeometry x="-70" y="120" width="130" height="20" as="geometry"/>
                </mxCell>
            </root>
        </mxGraphModel>
    </diagram>
</mxfile>